<svg width="48" height="48" viewBox="0 0 48 48" fill="none" xmlns="http://www.w3.org/2000/svg">
<path d="M24.0001 40.8C18.1667 40.8 13.0101 37.8134 10.0001 33.3334C10.0701 28.6667 19.3334 26.1 24.0001 26.1C28.6667 26.1 37.9301 28.6667 38.0001 33.3334C36.4575 35.6303 34.3738 37.5127 31.9324 38.8148C29.491 40.1168 26.767 40.7986 24.0001 40.8ZM24.0001 7.66669C25.8566 7.66669 27.6371 8.40419 28.9498 9.71694C30.2626 11.0297 31.0001 12.8102 31.0001 14.6667C31.0001 16.5232 30.2626 18.3037 28.9498 19.6164C27.6371 20.9292 25.8566 21.6667 24.0001 21.6667C22.1436 21.6667 20.3631 20.9292 19.0503 19.6164C17.7376 18.3037 17.0001 16.5232 17.0001 14.6667C17.0001 12.8102 17.7376 11.0297 19.0503 9.71694C20.3631 8.40419 22.1436 7.66669 24.0001 7.66669ZM24.0001 0.666687C20.9359 0.666687 17.9017 1.27022 15.0708 2.44283C12.2399 3.61544 9.66762 5.33416 7.50092 7.50086C3.12507 11.8767 0.666748 17.8116 0.666748 24C0.666748 30.1884 3.12507 36.1233 7.50092 40.4992C9.66762 42.6659 12.2399 44.3846 15.0708 45.5572C17.9017 46.7298 20.9359 47.3334 24.0001 47.3334C30.1885 47.3334 36.1234 44.875 40.4992 40.4992C44.8751 36.1233 47.3334 30.1884 47.3334 24C47.3334 11.0967 36.8334 0.666687 24.0001 0.666687Z" fill="black"/>
</svg>
